# xmcd
#
# Track frame offsets:
#	150
#	18281
#	31922
#	48127
#	67316
#	95886
#	112490
#	132962
#	146367
#	162039
#	176856
#
# Disc length: 2538 seconds
#
# Revision: 1
# Processed by: cddbd v1.5.2PL0 Copyright (c) Steve Scherf et al.
# Submitted via: audiograbber 1.83.01
#
DISCID=9e09e80b
DTITLE=Modern Earl - Inlaws and Outlaws
DYEAR=2011
DGENRE=Country
TTITLE0=blame the bottle
TTITLE1=busted
TTITLE2=road trippin`
TTITLE3=country love
TTITLE4=whiskey sister
TTITLE5=blood, sweat and beers
TTITLE6=i know you rider
TTITLE7=ain`t no sin
TTITLE8=if livin` don`t kill me
TTITLE9=hair of the dawg
TTITLE10=drink up and go home
EXTD=
EXTT0=
EXTT1=
EXTT2=
EXTT3=
EXTT4=
EXTT5=
EXTT6=
EXTT7=
EXTT8=
EXTT9=
EXTT10=
PLAYORDER=
